<svg xmlns="http://www.w3.org/2000/svg" version="1.1" xmlns:xlink="http://www.w3.org/1999/xlink" xmlns:svgjs="http://svgjs.dev/svgjs" viewBox="0 0 6.368466834240415 2.0712606252618686"><g transform="matrix(1,0,0,1,1.924874806762817,0.3217118106748952)"><g><path d=" M 0.4845 0.10499999999999998 L 0.8505 1.0485000000000002 Q 0.873 1.1055000000000001 0.9015 1.1242500000000002 Q 0.93 1.143 0.9540000000000001 1.1445 L 0.9540000000000001 1.1745 Q 0.924 1.1715000000000002 0.8805000000000001 1.1707500000000002 Q 0.837 1.1700000000000002 0.7935 1.1700000000000002 Q 0.735 1.1700000000000002 0.684 1.1707500000000002 Q 0.633 1.1715000000000002 0.6015 1.1745 L 0.6015 1.1445 Q 0.678 1.1415000000000002 0.6990000000000001 1.1182500000000002 Q 0.72 1.0950000000000002 0.6900000000000001 1.0185000000000002 L 0.41100000000000003 0.27300000000000013 L 0.435 0.25350000000000006 L 0.17400000000000002 0.9315000000000001 Q 0.15 0.9915 0.1455 1.03275 Q 0.14100000000000001 1.074 0.15375 1.098 Q 0.1665 1.122 0.19725 1.1325 Q 0.228 1.143 0.2745 1.1445 L 0.2745 1.1745 Q 0.2325 1.1715000000000002 0.18675 1.1707500000000002 Q 0.14100000000000001 1.1700000000000002 0.10200000000000001 1.1700000000000002 Q 0.0645 1.1700000000000002 0.03825 1.1707500000000002 Q 0.012 1.1715000000000002 -0.0105 1.1745 L -0.0105 1.1445 Q 0.0195 1.137 0.051000000000000004 1.10925 Q 0.0825 1.0815000000000001 0.108 1.014 L 0.4605 0.10499999999999998 Q 0.4665 0.10499999999999998 0.47250000000000003 0.10499999999999998 Q 0.47850000000000004 0.10499999999999998 0.4845 0.10499999999999998 M 0.6675 0.7425000000000002 L 0.6675 0.7725000000000001 L 0.2205 0.7725000000000001 L 0.23550000000000001 0.7425000000000002 L 0.6675 0.7425000000000002 M 1.4340073242187499 0.3810000000000001 Q 1.55700732421875 0.3810000000000001 1.63800732421875 0.48225000000000007 Q 1.71900732421875 0.5835000000000001 1.71900732421875 0.7890000000000001 Q 1.71900732421875 0.9240000000000002 1.67325732421875 1.01475 Q 1.62750732421875 1.1055000000000001 1.5510073242187499 1.1505 Q 1.47450732421875 1.1955 1.38450732421875 1.1955 Q 1.30950732421875 1.1955 1.23975732421875 1.1527500000000002 Q 1.17000732421875 1.11 1.1355073242187501 1.026 L 1.16550732421875 1.0425 Q 1.20300732421875 1.1025 1.25850732421875 1.13175 Q 1.31400732421875 1.161 1.37250732421875 1.161 Q 1.47300732421875 1.161 1.5232573242187502 1.0702500000000001 Q 1.57350732421875 0.9795 1.57350732421875 0.7890000000000001 Q 1.57350732421875 0.6675000000000001 1.55400732421875 0.5865000000000001 Q 1.5345073242187501 0.5055000000000001 1.49400732421875 0.4657500000000001 Q 1.4535073242187502 0.42600000000000005 1.39050732421875 0.42600000000000005 Q 1.32150732421875 0.42600000000000005 1.26225732421875 0.4882500000000001 Q 1.20300732421875 0.5505000000000001 1.18950732421875 0.6705000000000001 L 1.17150732421875 0.6495000000000001 Q 1.1880073242187499 0.5220000000000001 1.26075732421875 0.4515000000000001 Q 1.33350732421875 0.3810000000000001 1.4340073242187499 0.3810000000000001 M 1.20000732421875 0 L 1.20000732421875 1.0965 Q 1.18050732421875 1.113 1.16025732421875 1.1302500000000002 Q 1.14000732421875 1.1475000000000002 1.12050732421875 1.1640000000000001 Q 1.10100732421875 1.1805 1.08000732421875 1.1985000000000001 L 1.05450732421875 1.1880000000000002 Q 1.06050732421875 1.167 1.06275732421875 1.14525 Q 1.06500732421875 1.1235000000000002 1.06500732421875 1.1010000000000002 L 1.06500732421875 0.18000000000000005 Q 1.06500732421875 0.11250000000000004 1.04100732421875 0.08025000000000015 Q 1.01700732421875 0.04800000000000004 0.95100732421875 0.04800000000000004 L 0.95100732421875 0.01650000000000018 Q 0.99900732421875 0.02100000000000013 1.04400732421875 0.02100000000000013 Q 1.08750732421875 0.02100000000000013 1.12725732421875 0.015750000000000153 Q 1.16700732421875 0.010500000000000176 1.20000732421875 0 M 2.05347509765625 0 L 2.05347509765625 0.561 Q 2.09247509765625 0.4590000000000001 2.16222509765625 0.42000000000000004 Q 2.23197509765625 0.3810000000000001 2.30847509765625 0.3810000000000001 Q 2.36547509765625 0.3810000000000001 2.40372509765625 0.39600000000000013 Q 2.44197509765625 0.41100000000000003 2.46747509765625 0.43800000000000006 Q 2.49597509765625 0.4680000000000001 2.5079750976562503 0.5130000000000001 Q 2.51997509765625 0.558 2.51997509765625 0.6345000000000001 L 2.51997509765625 1.0350000000000001 Q 2.51997509765625 1.098 2.54622509765625 1.1205 Q 2.57247509765625 1.143 2.63397509765625 1.143 L 2.63397509765625 1.1745 Q 2.60847509765625 1.173 2.55597509765625 1.1707500000000002 Q 2.50347509765625 1.1685 2.45397509765625 1.1685 Q 2.40447509765625 1.1685 2.35722509765625 1.1707500000000002 Q 2.30997509765625 1.173 2.28597509765625 1.1745 L 2.28597509765625 1.143 Q 2.33997509765625 1.143 2.36247509765625 1.1205 Q 2.38497509765625 1.098 2.38497509765625 1.0350000000000001 L 2.38497509765625 0.6015 Q 2.38497509765625 0.555 2.3774750976562498 0.5160000000000001 Q 2.36997509765625 0.4770000000000001 2.3437250976562503 0.45300000000000007 Q 2.31747509765625 0.42900000000000005 2.26347509765625 0.42900000000000005 Q 2.20197509765625 0.42900000000000005 2.15472509765625 0.46350000000000013 Q 2.10747509765625 0.4980000000000001 2.08047509765625 0.5595000000000001 Q 2.05347509765625 0.6210000000000001 2.05347509765625 0.7005000000000001 L 2.05347509765625 1.0350000000000001 Q 2.05347509765625 1.098 2.07597509765625 1.1205 Q 2.09847509765625 1.143 2.15247509765625 1.143 L 2.15247509765625 1.1745 Q 2.12847509765625 1.173 2.08122509765625 1.1707500000000002 Q 2.03397509765625 1.1685 1.98447509765625 1.1685 Q 1.93497509765625 1.1685 1.88247509765625 1.1707500000000002 Q 1.82997509765625 1.173 1.80447509765625 1.1745 L 1.80447509765625 1.143 Q 1.86597509765625 1.143 1.89222509765625 1.1205 Q 1.9184750976562501 1.098 1.9184750976562501 1.0350000000000001 L 1.9184750976562501 0.18000000000000005 Q 1.9184750976562501 0.11250000000000004 1.89447509765625 0.08025000000000015 Q 1.87047509765625 0.04800000000000004 1.80447509765625 0.04800000000000004 L 1.80447509765625 0.01650000000000018 Q 1.85247509765625 0.02100000000000013 1.89747509765625 0.02100000000000013 Q 1.94097509765625 0.02100000000000013 1.98072509765625 0.015750000000000153 Q 2.02047509765625 0.010500000000000176 2.05347509765625 0 M 2.912994140625 1.185 Q 2.851494140625 1.185 2.806494140625 1.16175 Q 2.761494140625 1.1385 2.738244140625 1.0965 Q 2.714994140625 1.0545 2.714994140625 0.9990000000000001 Q 2.714994140625 0.933 2.745744140625 0.891 Q 2.776494140625 0.8490000000000001 2.824494140625 0.8235000000000001 Q 2.872494140625 0.798 2.925744140625 0.78075 Q 2.978994140625 0.7635000000000001 3.026994140625 0.7477500000000001 Q 3.074994140625 0.7320000000000001 3.105744140625 0.7110000000000001 Q 3.136494140625 0.6900000000000002 3.136494140625 0.6555000000000001 L 3.136494140625 0.5625000000000001 Q 3.136494140625 0.49950000000000006 3.117744140625 0.46650000000000014 Q 3.098994140625 0.4335000000000001 3.067494140625 0.4222500000000001 Q 3.035994140625 0.41100000000000003 2.996994140625 0.41100000000000003 Q 2.959494140625 0.41100000000000003 2.916744140625 0.4215000000000001 Q 2.873994140625 0.43200000000000005 2.848494140625 0.4650000000000001 Q 2.876994140625 0.4710000000000001 2.897994140625 0.4950000000000001 Q 2.918994140625 0.5190000000000001 2.918994140625 0.5565000000000001 Q 2.918994140625 0.5940000000000001 2.894994140625 0.6157500000000001 Q 2.870994140625 0.6375000000000001 2.833494140625 0.6375000000000001 Q 2.789994140625 0.6375000000000001 2.769744140625 0.6097500000000001 Q 2.749494140625 0.5820000000000001 2.749494140625 0.5475000000000001 Q 2.749494140625 0.5085000000000001 2.768994140625 0.48450000000000004 Q 2.788494140625 0.46050000000000013 2.818494140625 0.4395000000000001 Q 2.852994140625 0.4155000000000001 2.907744140625 0.3982500000000001 Q 2.962494140625 0.3810000000000001 3.031494140625 0.3810000000000001 Q 3.092994140625 0.3810000000000001 3.136494140625 0.3952500000000001 Q 3.179994140625 0.4095000000000001 3.208494140625 0.4365000000000001 Q 3.247494140625 0.47250000000000003 3.2594941406249998 0.5242500000000001 Q 3.271494140625 0.5760000000000001 3.271494140625 0.6480000000000001 L 3.271494140625 1.0650000000000002 Q 3.271494140625 1.1025 3.2827441406249998 1.119 Q 3.293994140625 1.1355000000000002 3.317994140625 1.1355000000000002 Q 3.334494140625 1.1355000000000002 3.349494140625 1.1280000000000001 Q 3.364494140625 1.1205 3.385494140625 1.104 L 3.401994140625 1.1295000000000002 Q 3.370494140625 1.1535000000000002 3.341994140625 1.1692500000000001 Q 3.313494140625 1.185 3.265494140625 1.185 Q 3.221994140625 1.185 3.193494140625 1.1700000000000002 Q 3.164994140625 1.155 3.150744140625 1.12575 Q 3.136494140625 1.0965 3.136494140625 1.0515 Q 3.095994140625 1.119 3.039744140625 1.1520000000000001 Q 2.983494140625 1.185 2.912994140625 1.185 M 2.966994140625 1.125 Q 3.016494140625 1.125 3.059244140625 1.0965 Q 3.101994140625 1.068 3.136494140625 1.0110000000000001 L 3.136494140625 0.7170000000000001 Q 3.118494140625 0.7425000000000002 3.083994140625 0.7597500000000001 Q 3.049494140625 0.7770000000000001 3.008994140625 0.7942500000000001 Q 2.968494140625 0.8115000000000001 2.9317441406249998 0.8347500000000001 Q 2.894994140625 0.8580000000000001 2.870994140625 0.8955000000000001 Q 2.846994140625 0.933 2.846994140625 0.9930000000000001 Q 2.846994140625 1.0530000000000002 2.879244140625 1.0890000000000002 Q 2.911494140625 1.125 2.966994140625 1.125 M 4.135500732421875 0.40200000000000014 L 4.135500732421875 0.43200000000000005 Q 4.107000732421875 0.43500000000000005 4.083000732421875 0.45750000000000013 Q 4.059000732421875 0.4800000000000001 4.0380007324218745 0.537 L 3.792000732421875 1.1820000000000002 L 3.766500732421875 1.1820000000000002 L 3.490500732421875 0.5175000000000001 Q 3.462000732421875 0.4590000000000001 3.434250732421875 0.44625000000000004 Q 3.406500732421875 0.4335000000000001 3.388500732421875 0.4335000000000001 L 3.388500732421875 0.40200000000000014 Q 3.421500732421875 0.4065000000000001 3.457500732421875 0.40875000000000006 Q 3.493500732421875 0.41100000000000003 3.535500732421875 0.41100000000000003 Q 3.582000732421875 0.41100000000000003 3.633750732421875 0.40800000000000003 Q 3.685500732421875 0.40500000000000014 3.730500732421875 0.40200000000000014 L 3.730500732421875 0.4335000000000001 Q 3.6930007324218748 0.4335000000000001 3.663750732421875 0.4387500000000001 Q 3.634500732421875 0.44400000000000006 3.627000732421875 0.47025000000000006 Q 3.619500732421875 0.49650000000000005 3.645000732421875 0.5595000000000001 L 3.829500732421875 1.0170000000000001 L 3.820500732421875 1.02 L 3.991500732421875 0.5730000000000001 Q 4.011000732421875 0.5235000000000001 4.007250732421875 0.4942500000000001 Q 4.003500732421875 0.4650000000000001 3.976500732421875 0.45000000000000007 Q 3.949500732421875 0.43500000000000005 3.895500732421875 0.43200000000000005 L 3.895500732421875 0.40200000000000014 Q 3.922500732421875 0.4035000000000001 3.942000732421875 0.4042500000000001 Q 3.961500732421875 0.40500000000000014 3.980250732421875 0.40575000000000006 Q 3.999000732421875 0.4065000000000001 4.021500732421875 0.4065000000000001 Q 4.056000732421875 0.4065000000000001 4.083750732421875 0.40500000000000014 Q 4.111500732421875 0.4035000000000001 4.135500732421875 0.40200000000000014 M 3.792000732421875 1.1820000000000002 L 3.741000732421875 1.3125 Q 3.726000732421875 1.35 3.710250732421875 1.3755000000000002 Q 3.694500732421875 1.401 3.676500732421875 1.4175 Q 3.652500732421875 1.4400000000000002 3.619500732421875 1.44825 Q 3.586500732421875 1.4565000000000001 3.559500732421875 1.4565000000000001 Q 3.531000732421875 1.4565000000000001 3.507750732421875 1.4460000000000002 Q 3.484500732421875 1.4355000000000002 3.471000732421875 1.4152500000000001 Q 3.457500732421875 1.395 3.457500732421875 1.3665 Q 3.457500732421875 1.3305 3.478500732421875 1.30875 Q 3.499500732421875 1.2870000000000001 3.537000732421875 1.2870000000000001 Q 3.568500732421875 1.2870000000000001 3.591000732421875 1.3050000000000002 Q 3.613500732421875 1.3230000000000002 3.613500732421875 1.3575000000000002 Q 3.613500732421875 1.383 3.601500732421875 1.3995000000000002 Q 3.589500732421875 1.4160000000000001 3.573000732421875 1.425 Q 3.5760007324218748 1.4265 3.578250732421875 1.4265 Q 3.580500732421875 1.4265 3.582000732421875 1.4265 Q 3.622500732421875 1.4265 3.654000732421875 1.3987500000000002 Q 3.685500732421875 1.371 3.709500732421875 1.3095 L 3.7635007324218748 1.1700000000000002 L 3.792000732421875 1.1820000000000002" fill="#173054" fill-rule="nonzero"></path></g><g></g><g clip-path="url(#SvgjsClipPath1002)"><g clip-path="url(#SvgjsClipPath100153da7d6c-2bdc-489f-a8b8-27e1dabbfd98)"><path d=" M -0.5779311054398397 0.012399923361260223 L -1.5907630727266615 0.012399923361260223 L -1.5907630727266615 1.025231890648082 L -0.5779311054398397 1.025231890648082 Z M -1.6318259921758433 -0.028662996087921555 L -1.6318259921758433 1.0662948100972636 L -0.5368681859906581 1.0662948100972636 L -0.5368681859906581 -0.028662996087921555 Z" fill="#225777" transform="matrix(1,0,0,1,0,0)" fill-rule="evenodd"></path></g><g clip-path="url(#SvgjsClipPath100153da7d6c-2bdc-489f-a8b8-27e1dabbfd98)"><path d=" M -0.44106291944918175 0.14926810935191812 L -1.4538948867360035 0.14926810935191812 L -1.4538948867360035 1.16210007663874 L -0.44106291944918175 1.16210007663874 Z M -1.4949578061851854 0.10820518990273642 L -1.4949578061851854 1.2031629960879215 L -0.40000000000000013 1.2031629960879215 L -0.40000000000000013 0.10820518990273642 Z" fill="#225777" transform="matrix(1,0,0,1,0,0)" fill-rule="evenodd"></path></g><path d=" M -1.0814641660126614 0.25811597773525113 L -0.9503626854168038 0.25811597773525113 L -0.8500568546253422 0.8740289738231728 L -0.9468431825820156 0.8740289738231728 L -0.9644406967559562 0.7517262503142855 L -0.9644406967559562 0.7534860017316796 L -1.0744251603430852 0.7534860017316796 L -1.0920226745170258 0.8740289738231728 L -1.1817699968041229 0.8740289738231728 L -1.0814641660126614 0.25811597773525113 M -0.9758790809690177 0.6698978094054617 L -1.0189929906951722 0.36546081419628895 L -1.0207527421125664 0.36546081419628895 L -1.0629867761300238 0.6698978094054617 L -0.9758790809690177 0.6698978094054617" fill="#225777" transform="matrix(1,0,0,1,0,0)" fill-rule="nonzero"></path></g></g><defs><clipPath id="SvgjsClipPath1002"><path d=" M -1.6318259921758433 -0.028662996087921555 h 1.2318259921758432 v 1.2318259921758432 h -1.2318259921758432 Z"></path></clipPath><clipPath id="SvgjsClipPath100153da7d6c-2bdc-489f-a8b8-27e1dabbfd98"><path d=" M -1.6318259921758433 -0.028662996087921555 L -0.40000000000000013 -0.028662996087921555 L -0.40000000000000013 1.2031629960879215 L -1.6318259921758433 1.2031629960879215 Z"></path></clipPath></defs></svg>